<mxfile host="app.diagrams.net" modified="2024-04-18T09:58:41.448Z" agent="Mozilla/5.0 (Windows NT 10.0; Win64; x64) AppleWebKit/537.36 (KHTML, like Gecko) Chrome/123.0.0.0 Safari/537.36" etag="d-PUp7ojqGgcLIqCf-mm" version="24.2.5" type="github">
  <diagram name="第 1 页" id="K5H_9Zw0PvqsQmt07m0w">
    <mxGraphModel dx="819" dy="481" grid="1" gridSize="10" guides="1" tooltips="1" connect="1" arrows="1" fold="1" page="1" pageScale="1" pageWidth="827" pageHeight="1169" math="0" shadow="0">
      <root>
        <mxCell id="0" />
        <mxCell id="1" parent="0" />
        <mxCell id="BO-Ao8ubwQV0J9x3if_I-14" value="A" style="rounded=1;whiteSpace=wrap;html=1;" vertex="1" parent="1">
          <mxGeometry x="140" y="80" width="60" height="60" as="geometry" />
        </mxCell>
        <mxCell id="BO-Ao8ubwQV0J9x3if_I-15" value="A" style="rounded=1;whiteSpace=wrap;html=1;" vertex="1" parent="1">
          <mxGeometry x="200" y="80" width="60" height="60" as="geometry" />
        </mxCell>
        <mxCell id="BO-Ao8ubwQV0J9x3if_I-16" value="B" style="rounded=1;whiteSpace=wrap;html=1;" vertex="1" parent="1">
          <mxGeometry x="260" y="80" width="60" height="60" as="geometry" />
        </mxCell>
        <mxCell id="BO-Ao8ubwQV0J9x3if_I-17" value="A" style="rounded=1;whiteSpace=wrap;html=1;" vertex="1" parent="1">
          <mxGeometry x="320" y="80" width="60" height="60" as="geometry" />
        </mxCell>
        <mxCell id="BO-Ao8ubwQV0J9x3if_I-18" value="A" style="rounded=1;whiteSpace=wrap;html=1;" vertex="1" parent="1">
          <mxGeometry x="380" y="80" width="60" height="60" as="geometry" />
        </mxCell>
        <mxCell id="BO-Ao8ubwQV0J9x3if_I-19" value="F" style="rounded=1;whiteSpace=wrap;html=1;" vertex="1" parent="1">
          <mxGeometry x="440" y="80" width="60" height="60" as="geometry" />
        </mxCell>
        <mxCell id="BO-Ao8ubwQV0J9x3if_I-25" value="" style="shape=flexArrow;endArrow=classic;html=1;rounded=0;strokeColor=#FF0000;" edge="1" parent="1">
          <mxGeometry width="50" height="50" relative="1" as="geometry">
            <mxPoint x="229.66000000000003" y="30" as="sourcePoint" />
            <mxPoint x="229.66000000000003" y="80" as="targetPoint" />
          </mxGeometry>
        </mxCell>
        <mxCell id="BO-Ao8ubwQV0J9x3if_I-34" value="字符串长度" style="text;html=1;align=center;verticalAlign=middle;whiteSpace=wrap;rounded=0;" vertex="1" parent="1">
          <mxGeometry x="50" y="170" width="70" height="30" as="geometry" />
        </mxCell>
        <mxCell id="BO-Ao8ubwQV0J9x3if_I-35" value="i=1" style="text;html=1;align=center;verticalAlign=middle;whiteSpace=wrap;rounded=0;" vertex="1" parent="1">
          <mxGeometry x="200" y="10" width="60" height="30" as="geometry" />
        </mxCell>
        <mxCell id="BO-Ao8ubwQV0J9x3if_I-40" value="" style="rounded=0;whiteSpace=wrap;html=1;fillColor=none;strokeColor=#FF0000;" vertex="1" parent="1">
          <mxGeometry x="140" y="70" width="120" height="80" as="geometry" />
        </mxCell>
        <mxCell id="BO-Ao8ubwQV0J9x3if_I-41" value="2" style="text;html=1;align=center;verticalAlign=middle;whiteSpace=wrap;rounded=0;" vertex="1" parent="1">
          <mxGeometry x="140" y="170" width="70" height="30" as="geometry" />
        </mxCell>
        <mxCell id="BO-Ao8ubwQV0J9x3if_I-42" value="最大前/后缀长度" style="text;html=1;align=center;verticalAlign=middle;whiteSpace=wrap;rounded=0;" vertex="1" parent="1">
          <mxGeometry x="20" y="200" width="100" height="30" as="geometry" />
        </mxCell>
        <mxCell id="BO-Ao8ubwQV0J9x3if_I-43" value="1" style="text;html=1;align=center;verticalAlign=middle;whiteSpace=wrap;rounded=0;" vertex="1" parent="1">
          <mxGeometry x="140" y="200" width="70" height="30" as="geometry" />
        </mxCell>
        <mxCell id="BO-Ao8ubwQV0J9x3if_I-44" value="前缀" style="text;html=1;align=center;verticalAlign=middle;whiteSpace=wrap;rounded=0;" vertex="1" parent="1">
          <mxGeometry x="20" y="230" width="100" height="30" as="geometry" />
        </mxCell>
        <mxCell id="BO-Ao8ubwQV0J9x3if_I-45" value="A" style="text;html=1;align=center;verticalAlign=middle;whiteSpace=wrap;rounded=0;" vertex="1" parent="1">
          <mxGeometry x="140" y="230" width="70" height="30" as="geometry" />
        </mxCell>
        <mxCell id="BO-Ao8ubwQV0J9x3if_I-46" value="后缀" style="text;html=1;align=center;verticalAlign=middle;whiteSpace=wrap;rounded=0;" vertex="1" parent="1">
          <mxGeometry x="20" y="260" width="100" height="30" as="geometry" />
        </mxCell>
        <mxCell id="BO-Ao8ubwQV0J9x3if_I-47" value="A" style="text;html=1;align=center;verticalAlign=middle;whiteSpace=wrap;rounded=0;" vertex="1" parent="1">
          <mxGeometry x="140" y="260" width="70" height="30" as="geometry" />
        </mxCell>
        <mxCell id="BO-Ao8ubwQV0J9x3if_I-48" value="A" style="rounded=1;whiteSpace=wrap;html=1;" vertex="1" parent="1">
          <mxGeometry x="140" y="360" width="60" height="60" as="geometry" />
        </mxCell>
        <mxCell id="BO-Ao8ubwQV0J9x3if_I-49" value="A" style="rounded=1;whiteSpace=wrap;html=1;" vertex="1" parent="1">
          <mxGeometry x="200" y="360" width="60" height="60" as="geometry" />
        </mxCell>
        <mxCell id="BO-Ao8ubwQV0J9x3if_I-50" value="B" style="rounded=1;whiteSpace=wrap;html=1;" vertex="1" parent="1">
          <mxGeometry x="260" y="360" width="60" height="60" as="geometry" />
        </mxCell>
        <mxCell id="BO-Ao8ubwQV0J9x3if_I-51" value="A" style="rounded=1;whiteSpace=wrap;html=1;" vertex="1" parent="1">
          <mxGeometry x="320" y="360" width="60" height="60" as="geometry" />
        </mxCell>
        <mxCell id="BO-Ao8ubwQV0J9x3if_I-52" value="A" style="rounded=1;whiteSpace=wrap;html=1;" vertex="1" parent="1">
          <mxGeometry x="380" y="360" width="60" height="60" as="geometry" />
        </mxCell>
        <mxCell id="BO-Ao8ubwQV0J9x3if_I-53" value="F" style="rounded=1;whiteSpace=wrap;html=1;" vertex="1" parent="1">
          <mxGeometry x="440" y="360" width="60" height="60" as="geometry" />
        </mxCell>
        <mxCell id="BO-Ao8ubwQV0J9x3if_I-54" value="" style="shape=flexArrow;endArrow=classic;html=1;rounded=0;strokeColor=#FF0000;" edge="1" parent="1">
          <mxGeometry width="50" height="50" relative="1" as="geometry">
            <mxPoint x="289.66" y="310" as="sourcePoint" />
            <mxPoint x="289.66" y="360" as="targetPoint" />
          </mxGeometry>
        </mxCell>
        <mxCell id="BO-Ao8ubwQV0J9x3if_I-55" value="字符串长度" style="text;html=1;align=center;verticalAlign=middle;whiteSpace=wrap;rounded=0;" vertex="1" parent="1">
          <mxGeometry x="50" y="440" width="70" height="30" as="geometry" />
        </mxCell>
        <mxCell id="BO-Ao8ubwQV0J9x3if_I-56" value="i=2" style="text;html=1;align=center;verticalAlign=middle;whiteSpace=wrap;rounded=0;" vertex="1" parent="1">
          <mxGeometry x="260" y="290" width="60" height="30" as="geometry" />
        </mxCell>
        <mxCell id="BO-Ao8ubwQV0J9x3if_I-57" value="" style="rounded=0;whiteSpace=wrap;html=1;fillColor=none;strokeColor=#FF0000;" vertex="1" parent="1">
          <mxGeometry x="140" y="350" width="180" height="80" as="geometry" />
        </mxCell>
        <mxCell id="BO-Ao8ubwQV0J9x3if_I-58" value="3" style="text;html=1;align=center;verticalAlign=middle;whiteSpace=wrap;rounded=0;" vertex="1" parent="1">
          <mxGeometry x="140" y="440" width="70" height="30" as="geometry" />
        </mxCell>
        <mxCell id="BO-Ao8ubwQV0J9x3if_I-59" value="最大前/后缀长度" style="text;html=1;align=center;verticalAlign=middle;whiteSpace=wrap;rounded=0;" vertex="1" parent="1">
          <mxGeometry x="20" y="470" width="100" height="30" as="geometry" />
        </mxCell>
        <mxCell id="BO-Ao8ubwQV0J9x3if_I-60" value="2" style="text;html=1;align=center;verticalAlign=middle;whiteSpace=wrap;rounded=0;" vertex="1" parent="1">
          <mxGeometry x="140" y="470" width="70" height="30" as="geometry" />
        </mxCell>
        <mxCell id="BO-Ao8ubwQV0J9x3if_I-61" value="前缀" style="text;html=1;align=center;verticalAlign=middle;whiteSpace=wrap;rounded=0;" vertex="1" parent="1">
          <mxGeometry x="20" y="500" width="100" height="30" as="geometry" />
        </mxCell>
        <mxCell id="BO-Ao8ubwQV0J9x3if_I-62" value="AA&lt;span style=&quot;white-space: pre;&quot;&gt;&#x9;&lt;/span&gt;&amp;nbsp;A" style="text;html=1;align=center;verticalAlign=middle;whiteSpace=wrap;rounded=0;" vertex="1" parent="1">
          <mxGeometry x="140" y="500" width="70" height="30" as="geometry" />
        </mxCell>
        <mxCell id="BO-Ao8ubwQV0J9x3if_I-63" value="后缀" style="text;html=1;align=center;verticalAlign=middle;whiteSpace=wrap;rounded=0;" vertex="1" parent="1">
          <mxGeometry x="20" y="530" width="100" height="30" as="geometry" />
        </mxCell>
        <mxCell id="BO-Ao8ubwQV0J9x3if_I-64" value="AB &lt;span style=&quot;white-space: pre;&quot;&gt;&#x9;&lt;/span&gt;B&lt;span style=&quot;white-space: pre;&quot;&gt;&#x9;&lt;/span&gt;&lt;span style=&quot;white-space: pre;&quot;&gt;&#x9;&lt;/span&gt;" style="text;html=1;align=center;verticalAlign=middle;whiteSpace=wrap;rounded=0;" vertex="1" parent="1">
          <mxGeometry x="135" y="530" width="80" height="30" as="geometry" />
        </mxCell>
        <mxCell id="BO-Ao8ubwQV0J9x3if_I-67" value="A" style="rounded=1;whiteSpace=wrap;html=1;" vertex="1" parent="1">
          <mxGeometry x="140" y="655" width="60" height="60" as="geometry" />
        </mxCell>
        <mxCell id="BO-Ao8ubwQV0J9x3if_I-68" value="A" style="rounded=1;whiteSpace=wrap;html=1;" vertex="1" parent="1">
          <mxGeometry x="200" y="655" width="60" height="60" as="geometry" />
        </mxCell>
        <mxCell id="BO-Ao8ubwQV0J9x3if_I-69" value="B" style="rounded=1;whiteSpace=wrap;html=1;" vertex="1" parent="1">
          <mxGeometry x="260" y="655" width="60" height="60" as="geometry" />
        </mxCell>
        <mxCell id="BO-Ao8ubwQV0J9x3if_I-70" value="A" style="rounded=1;whiteSpace=wrap;html=1;" vertex="1" parent="1">
          <mxGeometry x="320" y="655" width="60" height="60" as="geometry" />
        </mxCell>
        <mxCell id="BO-Ao8ubwQV0J9x3if_I-71" value="A" style="rounded=1;whiteSpace=wrap;html=1;" vertex="1" parent="1">
          <mxGeometry x="380" y="655" width="60" height="60" as="geometry" />
        </mxCell>
        <mxCell id="BO-Ao8ubwQV0J9x3if_I-72" value="F" style="rounded=1;whiteSpace=wrap;html=1;" vertex="1" parent="1">
          <mxGeometry x="440" y="655" width="60" height="60" as="geometry" />
        </mxCell>
        <mxCell id="BO-Ao8ubwQV0J9x3if_I-73" value="" style="shape=flexArrow;endArrow=classic;html=1;rounded=0;strokeColor=#FF0000;" edge="1" parent="1">
          <mxGeometry width="50" height="50" relative="1" as="geometry">
            <mxPoint x="349.66" y="605" as="sourcePoint" />
            <mxPoint x="349.66" y="655" as="targetPoint" />
          </mxGeometry>
        </mxCell>
        <mxCell id="BO-Ao8ubwQV0J9x3if_I-74" value="字符串长度" style="text;html=1;align=center;verticalAlign=middle;whiteSpace=wrap;rounded=0;" vertex="1" parent="1">
          <mxGeometry x="50" y="721" width="70" height="30" as="geometry" />
        </mxCell>
        <mxCell id="BO-Ao8ubwQV0J9x3if_I-75" value="i=3" style="text;html=1;align=center;verticalAlign=middle;whiteSpace=wrap;rounded=0;" vertex="1" parent="1">
          <mxGeometry x="320" y="585" width="60" height="30" as="geometry" />
        </mxCell>
        <mxCell id="BO-Ao8ubwQV0J9x3if_I-76" value="" style="rounded=0;whiteSpace=wrap;html=1;fillColor=none;strokeColor=#FF0000;" vertex="1" parent="1">
          <mxGeometry x="140" y="645" width="240" height="80" as="geometry" />
        </mxCell>
        <mxCell id="BO-Ao8ubwQV0J9x3if_I-77" value="4" style="text;html=1;align=center;verticalAlign=middle;whiteSpace=wrap;rounded=0;" vertex="1" parent="1">
          <mxGeometry x="140" y="721" width="70" height="30" as="geometry" />
        </mxCell>
        <mxCell id="BO-Ao8ubwQV0J9x3if_I-78" value="最大前/后缀长度" style="text;html=1;align=center;verticalAlign=middle;whiteSpace=wrap;rounded=0;" vertex="1" parent="1">
          <mxGeometry x="20" y="751" width="100" height="30" as="geometry" />
        </mxCell>
        <mxCell id="BO-Ao8ubwQV0J9x3if_I-79" value="3" style="text;html=1;align=center;verticalAlign=middle;whiteSpace=wrap;rounded=0;" vertex="1" parent="1">
          <mxGeometry x="140" y="751" width="70" height="30" as="geometry" />
        </mxCell>
        <mxCell id="BO-Ao8ubwQV0J9x3if_I-80" value="前缀" style="text;html=1;align=center;verticalAlign=middle;whiteSpace=wrap;rounded=0;" vertex="1" parent="1">
          <mxGeometry x="20" y="781" width="100" height="30" as="geometry" />
        </mxCell>
        <mxCell id="BO-Ao8ubwQV0J9x3if_I-81" value="AAB&amp;nbsp; AA&amp;nbsp; A" style="text;html=1;align=center;verticalAlign=middle;whiteSpace=wrap;rounded=0;" vertex="1" parent="1">
          <mxGeometry x="140" y="781" width="120" height="30" as="geometry" />
        </mxCell>
        <mxCell id="BO-Ao8ubwQV0J9x3if_I-82" value="后缀" style="text;html=1;align=center;verticalAlign=middle;whiteSpace=wrap;rounded=0;" vertex="1" parent="1">
          <mxGeometry x="20" y="811" width="100" height="30" as="geometry" />
        </mxCell>
        <mxCell id="BO-Ao8ubwQV0J9x3if_I-84" value="ABA&amp;nbsp; BA&amp;nbsp; A&lt;span style=&quot;white-space: pre;&quot;&gt;&#x9;&lt;/span&gt;&lt;span style=&quot;white-space: pre;&quot;&gt;&#x9;&lt;/span&gt;" style="text;html=1;align=center;verticalAlign=middle;whiteSpace=wrap;rounded=0;" vertex="1" parent="1">
          <mxGeometry x="140" y="811" width="120" height="30" as="geometry" />
        </mxCell>
        <mxCell id="BO-Ao8ubwQV0J9x3if_I-85" value="A" style="rounded=1;whiteSpace=wrap;html=1;" vertex="1" parent="1">
          <mxGeometry x="140" y="949" width="60" height="60" as="geometry" />
        </mxCell>
        <mxCell id="BO-Ao8ubwQV0J9x3if_I-86" value="A" style="rounded=1;whiteSpace=wrap;html=1;" vertex="1" parent="1">
          <mxGeometry x="200" y="949" width="60" height="60" as="geometry" />
        </mxCell>
        <mxCell id="BO-Ao8ubwQV0J9x3if_I-87" value="B" style="rounded=1;whiteSpace=wrap;html=1;" vertex="1" parent="1">
          <mxGeometry x="260" y="949" width="60" height="60" as="geometry" />
        </mxCell>
        <mxCell id="BO-Ao8ubwQV0J9x3if_I-88" value="A" style="rounded=1;whiteSpace=wrap;html=1;" vertex="1" parent="1">
          <mxGeometry x="320" y="949" width="60" height="60" as="geometry" />
        </mxCell>
        <mxCell id="BO-Ao8ubwQV0J9x3if_I-89" value="A" style="rounded=1;whiteSpace=wrap;html=1;" vertex="1" parent="1">
          <mxGeometry x="380" y="949" width="60" height="60" as="geometry" />
        </mxCell>
        <mxCell id="BO-Ao8ubwQV0J9x3if_I-90" value="F" style="rounded=1;whiteSpace=wrap;html=1;" vertex="1" parent="1">
          <mxGeometry x="440" y="949" width="60" height="60" as="geometry" />
        </mxCell>
        <mxCell id="BO-Ao8ubwQV0J9x3if_I-91" value="" style="shape=flexArrow;endArrow=classic;html=1;rounded=0;strokeColor=#FF0000;" edge="1" parent="1">
          <mxGeometry width="50" height="50" relative="1" as="geometry">
            <mxPoint x="409.66" y="899" as="sourcePoint" />
            <mxPoint x="409.66" y="949" as="targetPoint" />
          </mxGeometry>
        </mxCell>
        <mxCell id="BO-Ao8ubwQV0J9x3if_I-92" value="字符串长度" style="text;html=1;align=center;verticalAlign=middle;whiteSpace=wrap;rounded=0;" vertex="1" parent="1">
          <mxGeometry x="50" y="1015" width="70" height="30" as="geometry" />
        </mxCell>
        <mxCell id="BO-Ao8ubwQV0J9x3if_I-93" value="i=4" style="text;html=1;align=center;verticalAlign=middle;whiteSpace=wrap;rounded=0;" vertex="1" parent="1">
          <mxGeometry x="380" y="878" width="60" height="30" as="geometry" />
        </mxCell>
        <mxCell id="BO-Ao8ubwQV0J9x3if_I-94" value="" style="rounded=0;whiteSpace=wrap;html=1;fillColor=none;strokeColor=#FF0000;" vertex="1" parent="1">
          <mxGeometry x="140" y="939" width="300" height="80" as="geometry" />
        </mxCell>
        <mxCell id="BO-Ao8ubwQV0J9x3if_I-95" value="5" style="text;html=1;align=center;verticalAlign=middle;whiteSpace=wrap;rounded=0;" vertex="1" parent="1">
          <mxGeometry x="140" y="1015" width="70" height="30" as="geometry" />
        </mxCell>
        <mxCell id="BO-Ao8ubwQV0J9x3if_I-96" value="最大前/后缀长度" style="text;html=1;align=center;verticalAlign=middle;whiteSpace=wrap;rounded=0;" vertex="1" parent="1">
          <mxGeometry x="20" y="1045" width="100" height="30" as="geometry" />
        </mxCell>
        <mxCell id="BO-Ao8ubwQV0J9x3if_I-97" value="4" style="text;html=1;align=center;verticalAlign=middle;whiteSpace=wrap;rounded=0;" vertex="1" parent="1">
          <mxGeometry x="140" y="1045" width="70" height="30" as="geometry" />
        </mxCell>
        <mxCell id="BO-Ao8ubwQV0J9x3if_I-98" value="前缀" style="text;html=1;align=center;verticalAlign=middle;whiteSpace=wrap;rounded=0;" vertex="1" parent="1">
          <mxGeometry x="20" y="1075" width="100" height="30" as="geometry" />
        </mxCell>
        <mxCell id="BO-Ao8ubwQV0J9x3if_I-99" value="AABA&amp;nbsp; AAB&amp;nbsp; AA&amp;nbsp; A" style="text;html=1;align=center;verticalAlign=middle;whiteSpace=wrap;rounded=0;" vertex="1" parent="1">
          <mxGeometry x="140" y="1075" width="180" height="30" as="geometry" />
        </mxCell>
        <mxCell id="BO-Ao8ubwQV0J9x3if_I-100" value="后缀" style="text;html=1;align=center;verticalAlign=middle;whiteSpace=wrap;rounded=0;" vertex="1" parent="1">
          <mxGeometry x="20" y="1105" width="100" height="30" as="geometry" />
        </mxCell>
        <mxCell id="BO-Ao8ubwQV0J9x3if_I-101" value="ABAA&amp;nbsp; BAA&amp;nbsp; AA&amp;nbsp; A&lt;span style=&quot;white-space: pre;&quot;&gt;&#x9;&lt;/span&gt;&lt;span style=&quot;white-space: pre;&quot;&gt;&#x9;&lt;/span&gt;" style="text;html=1;align=center;verticalAlign=middle;whiteSpace=wrap;rounded=0;" vertex="1" parent="1">
          <mxGeometry x="140" y="1105" width="180" height="30" as="geometry" />
        </mxCell>
        <mxCell id="BO-Ao8ubwQV0J9x3if_I-102" value="NEXT[2]" style="text;html=1;align=center;verticalAlign=middle;whiteSpace=wrap;rounded=0;" vertex="1" parent="1">
          <mxGeometry x="20" y="560" width="100" height="30" as="geometry" />
        </mxCell>
        <mxCell id="BO-Ao8ubwQV0J9x3if_I-103" value="0" style="text;html=1;align=center;verticalAlign=middle;whiteSpace=wrap;rounded=0;" vertex="1" parent="1">
          <mxGeometry x="140" y="560" width="70" height="30" as="geometry" />
        </mxCell>
        <mxCell id="BO-Ao8ubwQV0J9x3if_I-104" value="NEXT[3]" style="text;html=1;align=center;verticalAlign=middle;whiteSpace=wrap;rounded=0;" vertex="1" parent="1">
          <mxGeometry x="20" y="841" width="100" height="30" as="geometry" />
        </mxCell>
        <mxCell id="BO-Ao8ubwQV0J9x3if_I-105" value="1" style="text;html=1;align=center;verticalAlign=middle;whiteSpace=wrap;rounded=0;" vertex="1" parent="1">
          <mxGeometry x="140" y="841" width="70" height="30" as="geometry" />
        </mxCell>
        <mxCell id="BO-Ao8ubwQV0J9x3if_I-106" value="NEXT[4]" style="text;html=1;align=center;verticalAlign=middle;whiteSpace=wrap;rounded=0;" vertex="1" parent="1">
          <mxGeometry x="20" y="1135" width="100" height="30" as="geometry" />
        </mxCell>
        <mxCell id="BO-Ao8ubwQV0J9x3if_I-107" value="2" style="text;html=1;align=center;verticalAlign=middle;whiteSpace=wrap;rounded=0;" vertex="1" parent="1">
          <mxGeometry x="140" y="1135" width="70" height="30" as="geometry" />
        </mxCell>
        <mxCell id="BO-Ao8ubwQV0J9x3if_I-108" value="A" style="rounded=1;whiteSpace=wrap;html=1;" vertex="1" parent="1">
          <mxGeometry x="130" y="1231" width="60" height="60" as="geometry" />
        </mxCell>
        <mxCell id="BO-Ao8ubwQV0J9x3if_I-109" value="A" style="rounded=1;whiteSpace=wrap;html=1;" vertex="1" parent="1">
          <mxGeometry x="190" y="1231" width="60" height="60" as="geometry" />
        </mxCell>
        <mxCell id="BO-Ao8ubwQV0J9x3if_I-110" value="B" style="rounded=1;whiteSpace=wrap;html=1;" vertex="1" parent="1">
          <mxGeometry x="250" y="1231" width="60" height="60" as="geometry" />
        </mxCell>
        <mxCell id="BO-Ao8ubwQV0J9x3if_I-111" value="A" style="rounded=1;whiteSpace=wrap;html=1;" vertex="1" parent="1">
          <mxGeometry x="310" y="1231" width="60" height="60" as="geometry" />
        </mxCell>
        <mxCell id="BO-Ao8ubwQV0J9x3if_I-112" value="A" style="rounded=1;whiteSpace=wrap;html=1;" vertex="1" parent="1">
          <mxGeometry x="370" y="1231" width="60" height="60" as="geometry" />
        </mxCell>
        <mxCell id="BO-Ao8ubwQV0J9x3if_I-113" value="F" style="rounded=1;whiteSpace=wrap;html=1;" vertex="1" parent="1">
          <mxGeometry x="430" y="1231" width="60" height="60" as="geometry" />
        </mxCell>
        <mxCell id="BO-Ao8ubwQV0J9x3if_I-114" value="" style="shape=flexArrow;endArrow=classic;html=1;rounded=0;strokeColor=#FF0000;" edge="1" parent="1">
          <mxGeometry width="50" height="50" relative="1" as="geometry">
            <mxPoint x="459.66" y="1181" as="sourcePoint" />
            <mxPoint x="459.66" y="1231" as="targetPoint" />
          </mxGeometry>
        </mxCell>
        <mxCell id="BO-Ao8ubwQV0J9x3if_I-115" value="字符串长度" style="text;html=1;align=center;verticalAlign=middle;whiteSpace=wrap;rounded=0;" vertex="1" parent="1">
          <mxGeometry x="40" y="1297" width="70" height="30" as="geometry" />
        </mxCell>
        <mxCell id="BO-Ao8ubwQV0J9x3if_I-116" value="i=5" style="text;html=1;align=center;verticalAlign=middle;whiteSpace=wrap;rounded=0;" vertex="1" parent="1">
          <mxGeometry x="430" y="1160" width="60" height="30" as="geometry" />
        </mxCell>
        <mxCell id="BO-Ao8ubwQV0J9x3if_I-117" value="" style="rounded=0;whiteSpace=wrap;html=1;fillColor=none;strokeColor=#FF0000;" vertex="1" parent="1">
          <mxGeometry x="130" y="1221" width="360" height="80" as="geometry" />
        </mxCell>
        <mxCell id="BO-Ao8ubwQV0J9x3if_I-118" value="6" style="text;html=1;align=center;verticalAlign=middle;whiteSpace=wrap;rounded=0;" vertex="1" parent="1">
          <mxGeometry x="130" y="1297" width="70" height="30" as="geometry" />
        </mxCell>
        <mxCell id="BO-Ao8ubwQV0J9x3if_I-119" value="最大前/后缀长度" style="text;html=1;align=center;verticalAlign=middle;whiteSpace=wrap;rounded=0;" vertex="1" parent="1">
          <mxGeometry x="10" y="1327" width="100" height="30" as="geometry" />
        </mxCell>
        <mxCell id="BO-Ao8ubwQV0J9x3if_I-120" value="5" style="text;html=1;align=center;verticalAlign=middle;whiteSpace=wrap;rounded=0;" vertex="1" parent="1">
          <mxGeometry x="130" y="1327" width="70" height="30" as="geometry" />
        </mxCell>
        <mxCell id="BO-Ao8ubwQV0J9x3if_I-121" value="前缀" style="text;html=1;align=center;verticalAlign=middle;whiteSpace=wrap;rounded=0;" vertex="1" parent="1">
          <mxGeometry x="10" y="1357" width="100" height="30" as="geometry" />
        </mxCell>
        <mxCell id="BO-Ao8ubwQV0J9x3if_I-122" value="AABAA&amp;nbsp; AABA&amp;nbsp; AAB&amp;nbsp; AA&amp;nbsp; A" style="text;html=1;align=center;verticalAlign=middle;whiteSpace=wrap;rounded=0;" vertex="1" parent="1">
          <mxGeometry x="130" y="1357" width="310" height="30" as="geometry" />
        </mxCell>
        <mxCell id="BO-Ao8ubwQV0J9x3if_I-123" value="后缀" style="text;html=1;align=center;verticalAlign=middle;whiteSpace=wrap;rounded=0;" vertex="1" parent="1">
          <mxGeometry x="10" y="1387" width="100" height="30" as="geometry" />
        </mxCell>
        <mxCell id="BO-Ao8ubwQV0J9x3if_I-124" value="ABAAF&amp;nbsp; BAAF&amp;nbsp; AAF&amp;nbsp; AF&amp;nbsp; F&lt;span style=&quot;white-space: pre;&quot;&gt;&#x9;&lt;/span&gt;&lt;span style=&quot;white-space: pre;&quot;&gt;&#x9;&lt;/span&gt;" style="text;html=1;align=center;verticalAlign=middle;whiteSpace=wrap;rounded=0;" vertex="1" parent="1">
          <mxGeometry x="130" y="1387" width="310" height="30" as="geometry" />
        </mxCell>
        <mxCell id="BO-Ao8ubwQV0J9x3if_I-125" value="NEXT[5]" style="text;html=1;align=center;verticalAlign=middle;whiteSpace=wrap;rounded=0;" vertex="1" parent="1">
          <mxGeometry x="10" y="1417" width="100" height="30" as="geometry" />
        </mxCell>
        <mxCell id="BO-Ao8ubwQV0J9x3if_I-126" value="0" style="text;html=1;align=center;verticalAlign=middle;whiteSpace=wrap;rounded=0;" vertex="1" parent="1">
          <mxGeometry x="130" y="1417" width="70" height="30" as="geometry" />
        </mxCell>
        <mxCell id="BO-Ao8ubwQV0J9x3if_I-127" value="" style="rounded=0;whiteSpace=wrap;html=1;fillColor=none;strokeColor=#33FF33;" vertex="1" parent="1">
          <mxGeometry x="130" y="1230" width="300" height="60" as="geometry" />
        </mxCell>
        <mxCell id="BO-Ao8ubwQV0J9x3if_I-129" value="" style="rounded=0;whiteSpace=wrap;html=1;fillColor=none;strokeColor=#3333FF;" vertex="1" parent="1">
          <mxGeometry x="190" y="1224.5" width="300" height="71" as="geometry" />
        </mxCell>
        <mxCell id="BO-Ao8ubwQV0J9x3if_I-130" value="" style="rounded=0;whiteSpace=wrap;html=1;fillColor=none;strokeColor=#33FF33;" vertex="1" parent="1">
          <mxGeometry x="140" y="949" width="240" height="60" as="geometry" />
        </mxCell>
        <mxCell id="BO-Ao8ubwQV0J9x3if_I-131" value="" style="rounded=0;whiteSpace=wrap;html=1;fillColor=none;strokeColor=#3333FF;" vertex="1" parent="1">
          <mxGeometry x="200" y="943.5" width="240" height="71" as="geometry" />
        </mxCell>
        <mxCell id="BO-Ao8ubwQV0J9x3if_I-132" value="" style="rounded=0;whiteSpace=wrap;html=1;fillColor=none;strokeColor=#3333FF;" vertex="1" parent="1">
          <mxGeometry x="200" y="650" width="180" height="71" as="geometry" />
        </mxCell>
        <mxCell id="BO-Ao8ubwQV0J9x3if_I-133" value="" style="rounded=0;whiteSpace=wrap;html=1;fillColor=none;strokeColor=#33FF33;" vertex="1" parent="1">
          <mxGeometry x="140" y="655.5" width="180" height="60" as="geometry" />
        </mxCell>
        <mxCell id="BO-Ao8ubwQV0J9x3if_I-134" value="" style="rounded=0;whiteSpace=wrap;html=1;fillColor=none;strokeColor=#33FF33;" vertex="1" parent="1">
          <mxGeometry x="140" y="360" width="120" height="60" as="geometry" />
        </mxCell>
        <mxCell id="BO-Ao8ubwQV0J9x3if_I-135" value="" style="rounded=0;whiteSpace=wrap;html=1;fillColor=none;strokeColor=#3333FF;" vertex="1" parent="1">
          <mxGeometry x="200" y="354.5" width="120" height="71" as="geometry" />
        </mxCell>
        <mxCell id="BO-Ao8ubwQV0J9x3if_I-136" value="" style="rounded=0;whiteSpace=wrap;html=1;fillColor=none;strokeColor=#3333FF;" vertex="1" parent="1">
          <mxGeometry x="200" y="74.5" width="60" height="71" as="geometry" />
        </mxCell>
        <mxCell id="BO-Ao8ubwQV0J9x3if_I-137" value="" style="rounded=0;whiteSpace=wrap;html=1;fillColor=none;strokeColor=#33FF33;" vertex="1" parent="1">
          <mxGeometry x="140" y="80" width="60" height="60" as="geometry" />
        </mxCell>
      </root>
    </mxGraphModel>
  </diagram>
</mxfile>
